<svg id="Layer_1" data-name="Layer 1" xmlns="http://www.w3.org/2000/svg" width="150" height="58.83" viewBox="0 0 150 58.83">
  <defs>
    <style>
      .cls-1 {
        fill: #fff;
      }
    </style>
  </defs>
  <g>
    <path class="cls-1" d="M58.1,52.24a16.78,16.78,0,0,1-4,4.59,16.61,16.61,0,0,1-8.48,3.58,20.1,20.1,0,0,1-2.19.13H17.23A16.76,16.76,0,0,1,.9,48a14.15,14.15,0,0,1-.52-4c0-1.88,0-3.77.2-5.63A37.84,37.84,0,0,1,4.29,25,40.41,40.41,0,0,1,31.42,2.88,32.82,32.82,0,0,1,38.66,1.8c2.06-.06,4.12-.14,6.17,0a16,16,0,0,1,9.52,3.82,16.44,16.44,0,0,1,5.79,10c.14.76.19,1.54.28,2.36-.56-.11-1.05-.24-1.54-.3-1.47-.17-2.94-.35-4.42-.47-1.77-.14-3.54-.29-5.32-.33-2.36-.06-4.73-.06-7.09,0a46.29,46.29,0,0,0-4.7.39A30.3,30.3,0,0,0,25.84,20.7a13.37,13.37,0,0,0-5,4.66,9,9,0,0,0-1.38,4.42c0,.2-.11.25-.26.31a11,11,0,0,0-4.06,2.57,9.55,9.55,0,0,0-2.61,5.4,18.45,18.45,0,0,0,1.18,9.18.52.52,0,0,0,.07.12c.33-.29.66-.59,1-.86a21,21,0,0,1,8-3.72A28.23,28.23,0,0,1,31.85,42,47.21,47.21,0,0,1,57,51.36C57.34,51.64,57.7,51.93,58.1,52.24Z" transform="translate(-0.37 -1.71)"/>
    <path class="cls-1" d="M119.1,27.94v-.85c0-1.38,0-2.77,0-4.16a1.27,1.27,0,0,1,1.12-1.32,1.33,1.33,0,0,1,1.49,1,2.31,2.31,0,0,1,.06.52V42.85a11.18,11.18,0,0,1-9.41,11.23,12.72,12.72,0,0,1-9.71-1.93,8.91,8.91,0,0,1-2.86-3.06,2.43,2.43,0,0,0-.24-.32,1.24,1.24,0,0,1-.07-1.68,1.35,1.35,0,0,1,1.74-.17,1.12,1.12,0,0,1,.32.33,8.9,8.9,0,0,0,7,4.6,9.31,9.31,0,0,0,8.09-2.78A8.18,8.18,0,0,0,119,43.41c0-2.09,0-4.18,0-6.31a.76.76,0,0,0-.08.13,9.36,9.36,0,0,1-6.6,6.16,11.14,11.14,0,1,1-4.81-21.72,10.22,10.22,0,0,1,9.72,3.26A8.44,8.44,0,0,1,119,27.79c0,.06,0,.11.07.16Zm-.17,4.65a8.83,8.83,0,0,0-17.66-.06,8.92,8.92,0,0,0,8.83,8.95A8.79,8.79,0,0,0,118.93,32.59Z" transform="translate(-0.37 -1.71)"/>
    <path class="cls-1" d="M94.85,27.91V23.08a2.27,2.27,0,0,1,0-.58,1.15,1.15,0,0,1,1-.81,1.21,1.21,0,0,1,1.35.6,1.65,1.65,0,0,1,.2.76q0,9.89,0,19.77a1.35,1.35,0,0,1-2,1.22,1,1,0,0,1-.61-1c0-1.54,0-3.08,0-4.63a2,2,0,0,0,0-.47,2.4,2.4,0,0,0-.11.23,9.6,9.6,0,0,1-7.38,5.94,11.25,11.25,0,0,1-13.11-9.07,11.41,11.41,0,0,1,9-13.36A10.23,10.23,0,0,1,93.79,26C94.18,26.56,94.48,27.22,94.85,27.91Zm-.21,5a8.91,8.91,0,1,0-8.86,8.87A8.89,8.89,0,0,0,94.64,32.92Z" transform="translate(-0.37 -1.71)"/>
    <path class="cls-1" d="M52,33.83a8.73,8.73,0,0,0,4.42,6.86A9.74,9.74,0,0,0,67.62,39.5a16.23,16.23,0,0,0,1.2-1.41,4.38,4.38,0,0,1,.63-.66,1.22,1.22,0,0,1,1.47,0,1.14,1.14,0,0,1,.43,1.33,4.76,4.76,0,0,1-1.17,1.79A11.17,11.17,0,0,1,64.11,44,12.33,12.33,0,0,1,55,42.73a11,11,0,0,1-5.64-8.43,11.33,11.33,0,0,1,8.86-12.5,11.63,11.63,0,0,1,10,2.12,10.56,10.56,0,0,1,4.14,6.6,6.92,6.92,0,0,1,.11,1.87,1.67,1.67,0,0,1-1.64,1.44c-.12,0-.25,0-.37,0H52Zm17.67-2.36A8.58,8.58,0,0,0,59.94,24a8.49,8.49,0,0,0-7.82,7.51Z" transform="translate(-0.37 -1.71)"/>
    <path class="cls-1" d="M130,33.83c.53,3.64,2.37,6.25,5.81,7.48a9.52,9.52,0,0,0,9.36-1.43,7.59,7.59,0,0,0,1.62-1.77,3.1,3.1,0,0,1,.57-.63,1.25,1.25,0,0,1,1.52-.06,1.17,1.17,0,0,1,.44,1.39,4.85,4.85,0,0,1-1.17,1.76A11.29,11.29,0,0,1,141.8,44a12.3,12.3,0,0,1-8.12-.89,10.94,10.94,0,0,1-6.35-8.4,11.27,11.27,0,0,1,8.79-12.94,11.56,11.56,0,0,1,9.94,2.11,10.62,10.62,0,0,1,4.17,6.65,9,9,0,0,1,.14,1.47,1.74,1.74,0,0,1-1.75,1.8c-.44,0-.87,0-1.3,0H130Zm17.7-2.36c0-.25-.07-.46-.12-.67a8.36,8.36,0,0,0-4.58-6,9.16,9.16,0,0,0-6.51-.58A8.46,8.46,0,0,0,130,31.47Z" transform="translate(-0.37 -1.71)"/>
    <path class="cls-1" d="M126.38,27.59V42.74a1.42,1.42,0,1,1-2.83.1,2.53,2.53,0,0,1,0-.28V12.65a2,2,0,0,1,0-.43,1.41,1.41,0,0,1,2.81.23Z" transform="translate(-0.37 -1.71)"/>
    <path class="cls-1" d="M68.28,46.29l.12,0c1.42,0,2.84,0,4.26,0a2,2,0,0,1,2,1.87A2.86,2.86,0,0,1,74.38,50a1.74,1.74,0,0,1-1.3.88L75,54.69c-.41,0-.78,0-1.14,0-.08,0-.17-.13-.21-.22-.52-1-1-2.06-1.52-3.1a.4.4,0,0,0-.42-.26c-.74,0-1.48,0-2.26,0v3.56H68.28Zm1.16,1c0,.92,0,1.8,0,2.68a.35.35,0,0,0,.24.15h2.59a1.1,1.1,0,0,0,1.18-1c.17-1-.22-1.87-1.47-1.81-.55,0-1.1,0-1.66,0Z" transform="translate(-0.37 -1.71)"/>
    <path class="cls-1" d="M66.69,46.32v8.39H65.53V50.88h-4v3.84H60.37v-8.4h1.14v3.51l.28,0h3.42c.25,0,.31-.08.31-.31,0-1,0-1.92,0-2.87v-.36Z" transform="translate(-0.37 -1.71)"/>
    <path class="cls-1" d="M79.08,46.3h2.34c.67,0,1.36,0,2,.06a2.22,2.22,0,0,1,2,2.11,4.55,4.55,0,0,1-.06,1.22,2.13,2.13,0,0,1-2.12,1.79c-.89,0-1.77,0-2.66,0h-.37v3.23H79.08Zm1.16,4.18c1,0,1.85,0,2.75,0a1.25,1.25,0,0,0,1.24-1.09,3.05,3.05,0,0,0,0-1,1.14,1.14,0,0,0-1.1-1c-.9-.05-1.8,0-2.71,0a.24.24,0,0,0-.17.17C80.24,48.48,80.24,49.46,80.24,50.48Z" transform="translate(-0.37 -1.71)"/>
    <path class="cls-1" d="M33.49,26a12.07,12.07,0,0,1-.14,1.71,2.59,2.59,0,0,1-2.38,2,9.35,9.35,0,0,1-4.13-.45l-.07-.05C27.32,27.06,30.82,25.35,33.49,26Z" transform="translate(-0.37 -1.71)"/>
    <path class="cls-1" d="M91.28,54.74c-.35,0-.69,0-1,0-.09,0-.18-.14-.24-.24a.79.79,0,0,1-.06-.25,7.29,7.29,0,0,1-1.31.52,3.4,3.4,0,0,1-1.31,0A1.51,1.51,0,0,1,86.89,52a6.78,6.78,0,0,1,1.37-.51c.49-.15,1-.27,1.48-.4.18,0,.28-.16.17-.34a1.72,1.72,0,0,0-.41-.54,1.38,1.38,0,0,0-1.9.49.31.31,0,0,1-.21.16c-.3,0-.6,0-.9,0a1.91,1.91,0,0,1,1.7-1.7,4.76,4.76,0,0,1,1.55.11A1.53,1.53,0,0,1,91,50.87v2.66A1.59,1.59,0,0,0,91.28,54.74ZM89.87,52c-.67.17-1.33.31-2,.51a1.1,1.1,0,0,0-.49.39.7.7,0,0,0,.31,1,1.94,1.94,0,0,0,1.76-.4C90,53.07,89.93,52.53,89.87,52Z" transform="translate(-0.37 -1.71)"/>
    <path class="cls-1" d="M97.27,49.16c-.79,1.9-1.56,3.74-2.33,5.57a8.7,8.7,0,0,1-.53,1.11,1.55,1.55,0,0,1-1.9.56.4.4,0,0,1-.18-.28c0-.23,0-.47,0-.72a5.58,5.58,0,0,0,.76.14.71.71,0,0,0,.7-1c-.7-1.67-1.4-3.35-2.09-5l-.14-.34c.35,0,.67,0,1,0,.08,0,.16.14.2.24.52,1.26,1,2.52,1.54,3.79,0,.08.07.16.13.29l.74-1.81.93-2.31c.06-.15.13-.23.31-.22S96.94,49.16,97.27,49.16Z" transform="translate(-0.37 -1.71)"/>
    <path class="cls-1" d="M110.13,27.26a5.32,5.32,0,1,1-5.35,5.22A5.29,5.29,0,0,1,110.13,27.26Z" transform="translate(-0.37 -1.71)"/>
  </g>
</svg>
